<svg xmlns="http://www.w3.org/2000/svg" viewBox="0 0 800 600">
  <rect width="800" height="600" fill="#0f172a"/>
  <!-- Grid nền -->
  <line x1="0" y1="120" x2="800" y2="120" stroke="#ffffff" stroke-opacity="0.04" stroke-width="1"/>
  <line x1="0" y1="240" x2="800" y2="240" stroke="#ffffff" stroke-opacity="0.04" stroke-width="1"/>
  <line x1="0" y1="360" x2="800" y2="360" stroke="#ffffff" stroke-opacity="0.04" stroke-width="1"/>
  <line x1="0" y1="480" x2="800" y2="480" stroke="#ffffff" stroke-opacity="0.04" stroke-width="1"/>
  <!-- Đường giá neon — diễn biến phức tạp -->
  <polyline
    points="60,380 110,350 140,370 170,300 200,320 230,260 260,300 290,240 320,270 350,200 380,230 410,190 440,220 470,170 500,210 530,250 560,220 590,280 620,240 660,290 700,260 740,300"
    fill="none" stroke="#f59e0b" stroke-width="2" stroke-linejoin="round" stroke-linecap="round"/>
  <!-- Vùng tô -->
  <polygon
    points="60,380 110,350 140,370 170,300 200,320 230,260 260,300 290,240 320,270 350,200 380,230 410,190 440,220 470,170 500,210 530,250 560,220 590,280 620,240 660,290 700,260 740,300 740,540 60,540"
    fill="#f59e0b" fill-opacity="0.05"/>
  <!-- Volume bars -->
  <rect x="80" y="490" width="18" height="50" rx="1" fill="#f59e0b" fill-opacity="0.5"/>
  <rect x="118" y="480" width="18" height="60" rx="1" fill="#f59e0b" fill-opacity="0.4"/>
  <rect x="156" y="500" width="18" height="40" rx="1" fill="#f59e0b" fill-opacity="0.5"/>
  <rect x="194" y="470" width="18" height="70" rx="1" fill="#f59e0b" fill-opacity="0.6"/>
  <rect x="232" y="455" width="18" height="85" rx="1" fill="#f59e0b" fill-opacity="0.7"/>
  <rect x="270" y="475" width="18" height="65" rx="1" fill="#f59e0b" fill-opacity="0.5"/>
  <rect x="308" y="460" width="18" height="80" rx="1" fill="#f59e0b" fill-opacity="0.6"/>
  <rect x="346" y="445" width="18" height="95" rx="1" fill="#f59e0b" fill-opacity="0.7"/>
  <rect x="384" y="480" width="18" height="60" rx="1" fill="#f59e0b" fill-opacity="0.5"/>
  <rect x="422" y="465" width="18" height="75" rx="1" fill="#f59e0b" fill-opacity="0.6"/>
  <rect x="460" y="450" width="18" height="90" rx="1" fill="#f59e0b" fill-opacity="0.7"/>
  <rect x="498" y="470" width="18" height="70" rx="1" fill="#f59e0b" fill-opacity="0.5"/>
  <rect x="536" y="485" width="18" height="55" rx="1" fill="#f59e0b" fill-opacity="0.4"/>
  <rect x="574" y="460" width="18" height="80" rx="1" fill="#f59e0b" fill-opacity="0.6"/>
  <rect x="612" y="475" width="18" height="65" rx="1" fill="#f59e0b" fill-opacity="0.5"/>
  <rect x="650" y="455" width="18" height="85" rx="1" fill="#f59e0b" fill-opacity="0.6"/>
  <rect x="688" y="468" width="18" height="72" rx="1" fill="#f59e0b" fill-opacity="0.5"/>
  <!-- Đường MA nhẹ -->
  <polyline
    points="60,370 150,340 250,290 350,250 450,220 550,240 650,270 740,280"
    fill="none" stroke="#60a5fa" stroke-width="1.2" stroke-dasharray="5 3" opacity="0.6"/>
  <!-- Label -->
  <text x="60" y="70" font-family="sans-serif" font-size="13" font-weight="bold" fill="#94a3b8" letter-spacing="3">DIỄN BIẾN GIÁ</text>
  <text x="60" y="90" font-family="sans-serif" font-size="11" fill="#475569">Phân tích kỹ thuật</text>
  <!-- Dot giá hiện tại -->
  <circle cx="740" cy="300" r="5" fill="#f59e0b"/>
  <circle cx="740" cy="300" r="10" fill="#f59e0b" fill-opacity="0.2"/>
</svg>
